<svg width="116" height="18" viewBox="0 0 116 18" fill="none" xmlns="http://www.w3.org/2000/svg">
<path d="M9.63432 0.88269L12.4933 6.50468L18.8868 7.41174L14.2606 11.7854L15.3524 17.9642L9.63432 15.0454L3.91629 17.9642L5.00808 11.7854L0.381836 7.41174L6.7753 6.50468L9.63432 0.88269Z" fill="#FFB168"/>
<path d="M33.8331 0.88269L36.6921 6.50468L43.0855 7.41174L38.4593 11.7854L39.5511 17.9642L33.8331 15.0454L28.115 17.9642L29.2068 11.7854L24.5806 7.41174L30.974 6.50468L33.8331 0.88269Z" fill="#FFB168"/>
<path d="M58.032 0.88269L60.891 6.50468L67.2845 7.41174L62.6583 11.7854L63.7501 17.9642L58.032 15.0454L52.314 17.9642L53.4058 11.7854L48.7795 7.41174L55.173 6.50468L58.032 0.88269Z" fill="#FFB168"/>
<path d="M82.2308 0.88269L85.0898 6.50468L91.4832 7.41174L86.857 11.7854L87.9488 17.9642L82.2308 15.0454L76.5127 17.9642L77.6045 11.7854L72.9783 7.41174L79.3717 6.50468L82.2308 0.88269Z" fill="#FFB168"/>
<path d="M106.429 0.88269L109.289 6.50468L115.682 7.41174L111.056 11.7854L112.148 17.9642L106.429 15.0454L100.711 17.9642L101.803 11.7854L97.177 7.41174L103.57 6.50468L106.429 0.88269Z" fill="#FFB168"/>
</svg>
